<!DOCTYPE svg PUBLIC "-//W3C//DTD SVG 1.1//EN" "http://www.w3.org/Graphics/SVG/1.1/DTD/svg11.dtd">
<!-- Uploaded to: SVG Repo, www.svgrepo.com, Transformed by: SVG Repo Mixer Tools -->
<svg width="64px" height="64px" viewBox="0 0 32 32" xmlns="http://www.w3.org/2000/svg" fill="#000000">
<g id="SVGRepo_bgCarrier" stroke-width="0"/>
<g id="SVGRepo_tracerCarrier" stroke-linecap="round" stroke-linejoin="round"/>
<g id="SVGRepo_iconCarrier"> <g fill="none" fill-rule="evenodd"> <circle cx="16" cy="16" r="16" fill="#FEC807" fill-rule="nonzero"/> <path d="M24.984 17.631h-4.928l-.88-2.64h5.8a.748.748 0 100-1.496H18.7l-2.517-7.673a1.074 1.074 0 00-2.12-.07l-6.02 18.303c-.016.1-.016.2 0 .3a1.012 1.012 0 001.989.246l5.051-15.4 1.443 4.294h-1.25a.748.748 0 100 1.496h1.76l.88 2.64h-2.64a.748.748 0 100 1.496h3.16l1.425 4.224h-7.559a1.056 1.056 0 100 2.112h8.941c.554 0 1.003-.449 1.003-1.003a1.03 1.03 0 00-.097-.44l-1.61-4.893h4.4a.748.748 0 100-1.496h.044z" fill="#FFF"/> </g> </g>
</svg>